<?xml version="1.0" standalone="no"?><!DOCTYPE svg PUBLIC "-//W3C//DTD SVG 1.1//EN" "http://www.w3.org/Graphics/SVG/1.1/DTD/svg11.dtd"><svg t="1758339701668" class="icon" viewBox="0 0 1024 1024" version="1.1" xmlns="http://www.w3.org/2000/svg" p-id="22378" xmlns:xlink="http://www.w3.org/1999/xlink" width="18" height="18"><path d="M597.480265 832.386323c-43.466708 0-79.567733 18.050513-107.180215 53.45946l-2.987233 3.827613v90.965827l24.830048-28.883645c24.950102-29.010761 53.134607-43.099483 85.3374-43.099483s60.380236 14.088722 85.330337 43.106545c33.057296 35.140591 68.642794 52.936871 106.756494 52.936871 38.106638 0 73.692136-17.79628 106.325711-52.470778l3.841737-4.074784V861.856115l-23.798993 22.379529c-31.666079 29.766397-60.50029 44.187033-86.368455 44.187033l-2.168038-0.03531c-24.582877-0.755636-51.821073-14.406512-81.566284-41.708266l-1.920868-1.779628 0.748574 0.939248c-27.612482-35.408948-63.720569-53.45946-107.180215-53.45946zM572.403046 33.608769L409.786007 293.858178l-15.748296-9.830326c-33.473955-20.917691-77.569182-10.734264-98.486873 22.739691l-277.607845 444.271419c-20.924753 33.473955-10.741326 77.569182 22.739692 98.486874l256.068695 160.011155c33.473955 20.917691 77.569182 10.734264 98.493936-22.739691l277.607844-444.271419 1.073426-1.765504c19.47704-33.247971 9.07469-76.170903-23.813117-96.721369l-15.741234-9.84445 162.61704-260.235285c20.917691-33.481017 10.734264-77.576244-22.739691-98.493936L670.904044 10.869078c-33.473955-20.917691-77.576244-10.734264-98.493936 22.739691z m64.829306 56.164212l80.85302 50.5146-170.321699 272.593813-0.974558 1.61014a56.919848 56.919848 0 0 0 19.081566 76.82767l28.078576 17.542048-263.547371 421.764774-233.562051-145.94362 263.540308-421.764774 28.0927 17.549109a56.919848 56.919848 0 0 0 78.43781-18.107009L637.232352 89.765919z" fill="#2ecc71" p-id="22379"></path><path d="M710.451333 649.713158c-43.459646 0-79.567733 18.050513-107.180215 53.459461l-2.987233 3.827612v90.972889l24.830048-28.883645c24.950102-29.017823 53.134607-43.106545 85.3374-43.106545s60.380236 14.088722 85.337399 43.106545c33.050234 35.147653 68.642794 52.936871 106.749432 52.936871 38.1137 0 73.692136-17.79628 106.325712-52.470778l3.841736-4.074783V679.190013l-23.798993 22.379528c-31.659017 29.766397-60.50029 44.187033-86.368455 44.187033l-2.160976-0.03531c-24.589939-0.755636-51.821073-14.39945-81.573346-41.708265l-1.913806-1.772566 0.741512 0.932186C790.019065 667.763671 753.910978 649.713158 710.451333 649.713158z" fill="#2ecc71" p-id="22380"></path></svg>