<?xml version="1.0" standalone="no"?><!DOCTYPE svg PUBLIC "-//W3C//DTD SVG 1.1//EN" "http://www.w3.org/Graphics/SVG/1.1/DTD/svg11.dtd"><svg t="1758339515466" class="icon" viewBox="0 0 1024 1024" version="1.1" xmlns="http://www.w3.org/2000/svg" p-id="16785" xmlns:xlink="http://www.w3.org/1999/xlink" width="18" height="18"><path d="M512 1024 512 1024C472.990476 1024 438.857143 989.866667 438.857143 950.857143l0-877.714286C438.857143 34.133333 472.990476 0 512 0l0 0C551.009524 0 585.142857 34.133333 585.142857 73.142857l0 877.714286C585.142857 989.866667 551.009524 1024 512 1024z" p-id="16786" fill="#ffffff"></path><path d="M0 512 0 512C0 472.990476 34.133333 438.857143 73.142857 438.857143l877.714286 0c39.009524 0 73.142857 34.133333 73.142857 73.142857l0 0c0 39.009524-34.133333 73.142857-73.142857 73.142857l-877.714286 0C34.133333 585.142857 0 551.009524 0 512z" p-id="16787" fill="#ffffff"></path></svg>