<?xml version="1.0" standalone="no"?><!DOCTYPE svg PUBLIC "-//W3C//DTD SVG 1.1//EN" "http://www.w3.org/Graphics/SVG/1.1/DTD/svg11.dtd"><svg t="1758340222319" class="icon" viewBox="0 0 1024 1024" version="1.1" xmlns="http://www.w3.org/2000/svg" p-id="31718" xmlns:xlink="http://www.w3.org/1999/xlink" width="16" height="16"><path d="M0 0h1024v1024H0z" fill="#2ecc71" fill-opacity="0" p-id="31719"></path><path d="M480.938667 343.04c-3.413333-53.248-39.480889-34.360889-39.480889-34.360889L281.6 417.905778a48.981333 48.981333 0 0 0-9.614222 9.329778l-100.693334 131.925333c-5.12 22.357333-22.300444 32.597333-22.300444 32.597333l-70.087111 31.630222a29.866667 29.866667 0 0 0-17.521778 27.136v171.804445c1.024 15.815111 8.590222 21.333333 15.132445 23.324444a21.845333 21.845333 0 0 0 14.791111-0.967111l104.049777-42.951111c5.859556-2.446222 12.401778-3.811556 18.602667-4.152889l241.208889-8.192c31.630222-1.422222 81.408-12.060444 93.468444-14.791111 1.706667-0.398222 3.413333-0.739556 5.12-1.422222l182.442667-62.520889a40.96 40.96 0 0 1 8.931556-1.706667c12.686222-1.422222 47.445333-20.935111 61.496889-29.184 3.811556-2.446222 7.224889-5.12 10.353777-8.305777l117.475556-124.017778c20.650667-96.142222-70.428444-60.188444-70.428445-60.188445l-127.146666 144.042667-316.074667-39.139556c-91.875556-1.592889-28.558222-104.675556-15.872-124.017777l1.877333-2.787556c9.841778-9.955556 41.756444-37.831111 60.359112-53.987555a40.163556 40.163556 0 0 0 13.710222-29.866667zM767.886222 449.422222l-147.740444 151.153778c-1.422222 1.422222-0.341333 3.811556 1.365333 4.209778l103.082667 9.955555 101.717333-112.071111s34.360889-79.018667-58.424889-53.248z m-97.962666-5.12c-16.099556-11.776-50.460444 6.826667-50.460445 6.826667l-128.170667 134.030222 111.672889 15.416889 87.608889-97.848889c25.770667-36.465778-20.650667-58.481778-20.650666-58.481778z m-39.480889-298.951111l-43.975111 61.44c-4.096 5.688889-8.704 10.979556-13.767112 15.872-26.168889 24.064-21.617778 58.709333-21.617777 58.709333 5.12 68.778667 78.961778 75.662222 78.961777 75.662223 49.493333-11.377778 67.413333-44.657778 73.955556-69.461334a56.547556 56.547556 0 0 0-8.248889-46.364444l-65.308444-95.857778z" fill="#2ecc71" p-id="31720"></path></svg>