<?xml version="1.0" standalone="no"?><!DOCTYPE svg PUBLIC "-//W3C//DTD SVG 1.1//EN" "http://www.w3.org/Graphics/SVG/1.1/DTD/svg11.dtd"><svg t="1758339435504" class="icon" viewBox="0 0 1024 1024" version="1.1" xmlns="http://www.w3.org/2000/svg" p-id="14774" xmlns:xlink="http://www.w3.org/1999/xlink" width="18" height="18"><path d="M566.4768 137.0112v162.4064c0 9.8304 3.2768 21.7088 9.9328 35.6352s19.0464 26.9312 37.1712 38.8096c16.0768 10.4448 30.0032 25.2928 41.8816 44.544 11.8784 19.2512 18.1248 38.912 18.8416 59.1872v126.8736c0 32.1536-0.2048 66.1504-0.512 102.1952s-0.512 69.7344-0.512 101.1712v112.128c0 6.9632-0.7168 14.336-2.048 22.016-1.4336 7.68-4.4032 15.36-8.9088 23.04-4.5056 7.68-11.1616 14.848-19.8656 21.504-8.704 6.656-20.48 12.0832-35.1232 16.2816-26.5216 7.68-55.9104 11.3664-88.064 10.9568s-64.6144-3.9936-97.4848-10.9568c-16.0768-3.4816-28.7744-8.3968-38.2976-14.6432-9.4208-6.2464-16.7936-13.312-22.016-20.992s-8.6016-15.5648-9.9328-23.552c-1.4336-7.9872-2.048-15.1552-2.048-21.504V484.9664c0.7168-31.4368 7.4752-55.7056 20.48-72.8064 12.9024-17.1008 25.7024-29.9008 38.2976-38.2976 11.1616-7.68 21.8112-18.3296 31.9488-31.9488 10.1376-13.6192 15.5648-26.0096 16.2816-37.1712V137.0112h109.9776z m26.2144 471.6544H430.2848v169.7792h162.4064V608.6656zM510.976 10.24c23.04 0 38.0928 2.2528 45.056 6.8608 6.9632 4.5056 10.4448 15.872 10.4448 34.0992v57.6512H456.4992V53.248c0-17.5104 3.4816-28.9792 10.4448-34.6112 6.9632-5.632 21.6064-8.3968 44.032-8.3968z" fill="" p-id="14775"></path></svg>