<?xml version="1.0" standalone="no"?><!DOCTYPE svg PUBLIC "-//W3C//DTD SVG 1.1//EN" "http://www.w3.org/Graphics/SVG/1.1/DTD/svg11.dtd"><svg t="1758339480275" class="icon" viewBox="0 0 1024 1024" version="1.1" xmlns="http://www.w3.org/2000/svg" p-id="15788" xmlns:xlink="http://www.w3.org/1999/xlink" width="18" height="18"><path d="M1016.66099157 380.53860246c-11.2950832-45.54469145-28.41988581-88.90323732-50.64569668-128.98256499-45.90905004-4.37229105-90.72502428-24.41195335-126.06770525-59.75463439-36.80010935-36.80010935-56.83977465-83.80223211-60.11899294-131.89742464-41.53675898-24.77631196-86.35273324-43.72290453-134.4479288-56.47541906-36.80010935 33.88524965-85.98837766 54.28927055-139.9132896 54.28927357-51.73876942 0-99.10524779-18.94659254-135.54100151-50.64569671-42.99418733 12.38815602-83.43787359 30.24167575-120.9667001 52.8318422-4.73664661 45.54469145-24.41195335 89.99631015-59.39027577 124.97463249-34.24960822 34.24960822-77.24379555 53.92491499-122.05977279 59.02592018-24.41195335 41.90111459-42.99418733 87.81016458-55.01798772 136.26971575 34.97832236 37.16446793 56.47541607 87.08145043 56.47541607 141.73507654 0 50.64569664-18.21787533 96.91910229-48.45955116 132.99050043 11.2950832 37.52882653 26.96245747 72.87150448 46.27340561 106.02803996 51.73876942 1.09307274 103.11318028 21.13273809 142.8281523 60.48334853 37.89318211 37.89318211 57.9328474 87.08145043 60.48335157 136.63407429 31.69910413 17.12480261 65.21999817 30.9703899 100.19832052 41.17240037 36.43575375-31.33474851 83.80223211-50.64569664 135.54099856-50.64569662 53.92491499 0 103.11318028 20.76837953 139.91329258 54.28927352 40.07932762-10.56636906 78.33686831-25.50502614 114.04390495-44.81597727 0.7287142-52.10312801 20.76837953-103.84189444 60.48335151-143.55686644 40.44368622-40.44368622 93.63988404-60.84770715 146.47172614-60.48334853 17.48916122-31.33474851 31.69910413-64.491284 42.26547314-99.10524781-30.24167575-36.07139517-48.45955113-82.34480075-48.4595511-132.99050043 0-54.65362913 21.13273809-104.57061159 56.11106047-141.37072094z m-502.0846756 361.80702737c-131.89742469 0-238.65418179-106.75675717-238.65418177-238.65418182s106.75675717-238.65418179 238.65418177-238.65418183 238.65418179 106.75675717 238.65418183 238.65418183-106.75675717 238.65418179-238.65418183 238.65418182z" fill="#8a8a8a" p-id="15789"></path></svg>