<?xml version="1.0" standalone="no"?><!DOCTYPE svg PUBLIC "-//W3C//DTD SVG 1.1//EN" "http://www.w3.org/Graphics/SVG/1.1/DTD/svg11.dtd"><svg t="1758339823975" class="icon" viewBox="0 0 1024 1024" version="1.1" xmlns="http://www.w3.org/2000/svg" p-id="23569" xmlns:xlink="http://www.w3.org/1999/xlink" width="18" height="18"><path d="M330.709333 417.578667h362.666667a44.757333 44.757333 0 0 1 0 86.912h-362.666667a44.757333 44.757333 0 0 1 0-86.912z m0-173.824h362.666667a44.757333 44.757333 0 0 1 0 86.912h-362.666667a44.757333 44.757333 0 0 1 0-86.912z" fill="#333333" p-id="23570"></path><path d="M514.005333 633.6L42.666667 386.432v428.117333a138.496 138.496 0 0 0 129.493333 145.962667h679.68A138.496 138.496 0 0 0 981.333333 814.549333V376.618667l-8.277333 3.072z" fill="#333333" p-id="23571"></path><path d="M193.322667 247.552a51.2 51.2 0 0 1 47.274666-54.101333h543.018667a51.2 51.2 0 0 1 47.274667 54.101333v235.136l94.421333-50.432v-238.933333a101.973333 101.973333 0 0 0-94.421333-108.074667H193.322667a101.888 101.888 0 0 0-94.421334 108.074667v247.082666l94.421334 48.085334z" fill="#333333" p-id="23572"></path></svg>