<?xml version="1.0" standalone="no"?><!DOCTYPE svg PUBLIC "-//W3C//DTD SVG 1.1//EN" "http://www.w3.org/Graphics/SVG/1.1/DTD/svg11.dtd"><svg t="1758340298647" class="icon" viewBox="0 0 1024 1024" version="1.1" xmlns="http://www.w3.org/2000/svg" p-id="33912" xmlns:xlink="http://www.w3.org/1999/xlink" width="16" height="16"><path d="M857.8848 457.38666667v22.7552c0 159.2896-113.77813333 286.72-259.41333333 304.9248 27.30666667 22.7552 63.7152 36.40853333 104.6752 36.40853333h36.40853333c77.3696 0 63.71626667 109.22666667 100.1248 86.47146667 13.65333333-9.10186667 27.30666667-40.96 50.06186667-68.26666667 22.75626667-27.30666667 50.06293333-50.06186667 50.06293333-50.06186667 40.96-31.85813333 68.26666667-81.92 68.26666667-141.0848v-18.2048c4.5504-86.4704-63.71626667-163.84-150.18666667-172.94186666z" fill="#2ecc71" p-id="33913"></path><path d="M826.02666667 448.2848V416.42666667c0-168.39146667-131.98186667-304.9248-291.27146667-304.9248h-232.10666667c-159.28853333 0-291.2704 136.53333333-291.2704 304.9248v31.85813333c0 100.12373333 45.5104 191.14666667 118.32853334 245.76s50.06186667 40.96 86.47146666 91.02186667c36.40853333 50.06186667 68.26666667 109.22666667 86.4704 122.88 68.26666667 45.51146667 40.96-154.73813333 172.94293334-154.73813334h59.16373333c163.84 0 291.27146667-136.53333333 291.27146667-304.92373333z m-405.04853334 163.84c-104.67626667 0-191.14666667-68.26666667-191.14666666-154.73813333 0-13.65333333 9.10186667-22.7552 22.7552-22.7552S275.34186667 443.73333333 275.34186667 457.38666667c0 63.7152 68.26666667 113.77813333 150.18666666 113.77813333 81.92 0 150.18666667-50.06293333 150.18666667-113.77813333 0-13.65333333 9.10293333-22.7552 22.75626667-22.7552S621.22666667 443.73333333 621.22666667 457.38666667c-9.10186667 86.47146667-95.57333333 154.73813333-200.24853334 154.73813333z" fill="#2ecc71" p-id="33914"></path></svg>