<?xml version="1.0" standalone="no"?><!DOCTYPE svg PUBLIC "-//W3C//DTD SVG 1.1//EN" "http://www.w3.org/Graphics/SVG/1.1/DTD/svg11.dtd"><svg t="1758340173538" class="icon" viewBox="0 0 1185 1024" version="1.1" xmlns="http://www.w3.org/2000/svg" p-id="30502" width="18.515625" height="16" xmlns:xlink="http://www.w3.org/1999/xlink"><path d="M1127.531789 37.025684a92.698947 92.698947 0 0 0-94.693052-17.515789l-945.852632 357.322105A91.674947 91.674947 0 0 0 27.109053 459.560421a91.728842 91.728842 0 0 0 52.062315 87.848421l147.671579 72.218947a31.690105 31.690105 0 0 1 7.922527 5.605053c15.36 39.504842 75.991579 194.290526 102.938947 250.287158 13.635368 28.510316 38.696421 48.505263 61.978947 57.128421-1.616842-0.107789-3.233684-0.431158-5.12-0.754526a92.429474 92.429474 0 0 0 98.088421-21.396211l54.972632-54.972631a31.205053 31.205053 0 0 1 37.187368-5.12l237.029053 134.521263a92.267789 92.267789 0 0 0 82.620632 4.634947c26.947368-11.641263 46.457263-34.546526 53.571368-63.056842l197.901474-797.857684a91.890526 91.890526 0 0 0-28.348632-91.621053zM293.618526 606.100211l507.095579-290.115369-286.288842 293.187369a46.187789 46.187789 0 0 0-10.347789 16.599578l-0.323369 0.754527c-0.592842 1.886316-57.182316 168.798316-90.650947 244.250947a56.104421 56.104421 0 0 1-19.833263-21.827368c-24.791579-52.062316-82.620632-199.464421-99.705263-242.849684z" fill="#2ecc71" p-id="30503"></path></svg>